<?xml version="1.0" encoding="utf-8"?>
<!-- Generator: Adobe Illustrator 21.1.0, SVG Export Plug-In . SVG Version: 6.00 Build 0)  -->
<svg version="1.1" id="Layer_1" xmlns="http://www.w3.org/2000/svg" xmlns:xlink="http://www.w3.org/1999/xlink" x="0px" y="0px"
	 viewBox="0 0 214 331" style="enable-background:new 0 0 214 331;" xml:space="preserve">
<style type="text/css">
	.st0{fill-rule:evenodd;clip-rule:evenodd;fill:#EEEEEE;}
	.st1{fill:none;stroke:#595959;stroke-width:0.75;stroke-linejoin:round;stroke-miterlimit:8;}
	.st2{font-family:'ArialMT';}
	.st3{font-size:10px;}
</style>
<polygon class="st0" points="55.7,6.6 182.1,6.6 207.4,31.9 207.4,183.1 55.7,183.1 "/>
<polygon class="st1" points="55.7,6.6 182.1,6.6 207.4,31.9 207.4,183.1 55.7,183.1 "/>
<text transform="matrix(1 0 0 1 62.4961 35.6201)"><tspan x="0" y="0" class="st2 st3">Fold</tspan><tspan x="19.5" y="0" class="st2 st3"> </tspan><tspan x="22.1" y="0" class="st2 st3">T</tspan><tspan x="28.2" y="0" class="st2 st3">L</tspan><tspan x="33.4" y="0" class="st2 st3"> to BR towards you</tspan></text>
<text transform="matrix(1 0 0 1 62.4961 59.6201)" class="st2 st3">Fold horiz middle away</text>
<text transform="matrix(1 0 0 1 62.4961 83.6201)" class="st2 st3">Fold vertical middle towards</text>
<polygon class="st0" points="49.7,12.6 176.1,12.6 201.4,37.9 201.4,189.1 49.7,189.1 "/>
<polygon class="st1" points="49.7,12.6 176.1,12.6 201.4,37.9 201.4,189.1 49.7,189.1 "/>
<text transform="matrix(1 0 0 1 56.4961 41.6201)"><tspan x="0" y="0" class="st2 st3">Fold</tspan><tspan x="19.5" y="0" class="st2 st3"> </tspan><tspan x="22.1" y="0" class="st2 st3">T</tspan><tspan x="28.2" y="0" class="st2 st3">L</tspan><tspan x="33.4" y="0" class="st2 st3"> to BR towards you</tspan></text>
<text transform="matrix(1 0 0 1 56.4961 65.6201)" class="st2 st3">Fold horiz middle away</text>
<text transform="matrix(1 0 0 1 56.4961 89.6201)" class="st2 st3">Fold vertical middle towards</text>
<polygon class="st0" points="43.7,18.6 170.1,18.6 195.4,43.9 195.4,195.1 43.7,195.1 "/>
<polygon class="st1" points="43.7,18.6 170.1,18.6 195.4,43.9 195.4,195.1 43.7,195.1 "/>
<text transform="matrix(1 0 0 1 50.4961 47.6201)"><tspan x="0" y="0" class="st2 st3">Fold</tspan><tspan x="19.5" y="0" class="st2 st3"> </tspan><tspan x="22.1" y="0" class="st2 st3">T</tspan><tspan x="28.2" y="0" class="st2 st3">L</tspan><tspan x="33.4" y="0" class="st2 st3"> to BR towards you</tspan></text>
<text transform="matrix(1 0 0 1 50.4961 71.6201)" class="st2 st3">Fold horiz middle away</text>
<text transform="matrix(1 0 0 1 50.4961 95.6201)" class="st2 st3">Fold vertical middle towards</text>
<polygon class="st0" points="37.7,24.6 164.1,24.6 189.4,49.9 189.4,201.1 37.7,201.1 "/>
<polygon class="st1" points="37.7,24.6 164.1,24.6 189.4,49.9 189.4,201.1 37.7,201.1 "/>
<text transform="matrix(1 0 0 1 44.4961 53.6201)" class="st2 st3">1. Fold top-left to </text>
<text transform="matrix(1 0 0 1 44.4961 65.6201)" class="st2 st3">bottom-right towards you.</text>
<text transform="matrix(1 0 0 1 44.4961 89.6201)" class="st2 st3">2. Fold horizontal middle </text>
<text transform="matrix(1 0 0 1 44.4961 101.6201)" class="st2 st3">away from you.</text>
<text transform="matrix(1 0 0 1 44.4961 125.6201)" class="st2 st3">3. Fold vertical middle </text>
<text transform="matrix(1 0 0 1 44.4961 137.6201)" class="st2 st3">towards you.</text>
<polygon class="st0" points="7.4,147.1 133.8,147.1 159.1,172.4 159.1,323.6 7.4,323.6 "/>
<polygon class="st1" points="7.4,147.1 133.8,147.1 159.1,172.4 159.1,323.6 7.4,323.6 "/>
<text transform="matrix(1 0 0 1 14.1895 176.0967)" class="st2 st3">1. Fold top-right to </text>
<text transform="matrix(1 0 0 1 14.1895 188.0967)" class="st2 st3">bottom-left towards you.</text>
<text transform="matrix(1 0 0 1 14.1895 212.0967)" class="st2 st3">2. Fold horizontal middle </text>
<text transform="matrix(1 0 0 1 14.1895 224.0967)" class="st2 st3">away from you.</text>
<text transform="matrix(1 0 0 1 14.1895 248.0967)" class="st2 st3">3. Fold vertical middle away </text>
<text transform="matrix(1 0 0 1 14.1895 260.0967)" class="st2 st3">from you.</text>
</svg>
