<?xml version="1.0" encoding="utf-8"?>
<!-- Generator: Adobe Illustrator 21.1.0, SVG Export Plug-In . SVG Version: 6.00 Build 0)  -->
<svg version="1.1" id="Layer_1" xmlns="http://www.w3.org/2000/svg" xmlns:xlink="http://www.w3.org/1999/xlink" x="0px" y="0px"
	 viewBox="0 0 550 350" style="enable-background:new 0 0 550 350;" xml:space="preserve">
<style type="text/css">
	.st0{fill:none;stroke:#000000;stroke-width:3;}
	.st1{font-family:'ArialMT';}
	.st2{font-size:18px;}
	.st3{fill:none;stroke:#000000;stroke-width:3;stroke-miterlimit:10;}
	.st4{font-size:24px;}
</style>
<circle class="st0" cx="73" cy="150" r="25"/>
<text transform="matrix(1 0 0 1 61 155)" class="st1 st2">AT</text>
<circle class="st0" cx="173" cy="150" r="25"/>
<text transform="matrix(1 0 0 1 161 155)" class="st1 st2">TG</text>
<circle class="st0" cx="273" cy="250" r="25"/>
<text transform="matrix(1 0 0 1 261 255)" class="st1 st2">GG</text>
<circle class="st0" cx="373" cy="150" r="25"/>
<text transform="matrix(1 0 0 1 361 155)" class="st1 st2">GC</text>
<circle class="st0" cx="473" cy="150" r="25"/>
<text transform="matrix(1 0 0 1 461 155)" class="st1 st2">CA</text>
<circle class="st0" cx="173" cy="50" r="25"/>
<text transform="matrix(1 0 0 1 161 55)" class="st1 st2">GT</text>
<circle class="st0" cx="373" cy="50" r="25"/>
<text transform="matrix(1 0 0 1 361 55)" class="st1 st2">CG</text>
<g>
	<g>
		<line class="st3" x1="98" y1="150" x2="137.4" y2="150"/>
		<g>
			<polygon points="148,150 133.1,156.1 136.6,150 133.1,143.9 			"/>
		</g>
	</g>
</g>
<text transform="matrix(1 0 0 1 101 130)" class="st1 st4">ATG</text>
<g>
	<g>
		<path class="st3" d="M246.8,225.9"/>
		<path class="st3" d="M188.1,169.9"/>
	</g>
</g>
</svg>
