<?xml version="1.0" encoding="utf-8"?>
<!-- Generator: Adobe Illustrator 21.1.0, SVG Export Plug-In . SVG Version: 6.00 Build 0)  -->
<svg version="1.1" id="Layer_1" xmlns="http://www.w3.org/2000/svg" xmlns:xlink="http://www.w3.org/1999/xlink" x="0px" y="0px"
	 viewBox="0 0 550 350" style="enable-background:new 0 0 550 350;" xml:space="preserve">
<style type="text/css">
	.st0{fill:none;stroke:#000000;stroke-width:3;}
	.st1{font-family:'ArialMT';}
	.st2{font-size:18px;}
	.st3{fill:none;stroke:#000000;stroke-width:3;stroke-miterlimit:10;}
	.st4{font-size:24px;}
	.st5{fill:none;stroke:#FF2409;stroke-width:2;stroke-miterlimit:10;}
</style>
<circle class="st0" cx="73" cy="150" r="25"/>
<text transform="matrix(1 0 0 1 61 155)" class="st1 st2">AT</text>
<circle class="st0" cx="173" cy="150" r="25"/>
<text transform="matrix(1 0 0 1 161 155)" class="st1 st2">TG</text>
<circle class="st0" cx="273" cy="250" r="25"/>
<text transform="matrix(1 0 0 1 261 255)" class="st1 st2">GG</text>
<circle class="st0" cx="373" cy="150" r="25"/>
<text transform="matrix(1 0 0 1 361 155)" class="st1 st2">GC</text>
<circle class="st0" cx="473" cy="150" r="25"/>
<text transform="matrix(1 0 0 1 461 155)" class="st1 st2">CA</text>
<circle class="st0" cx="173" cy="50" r="25"/>
<text transform="matrix(1 0 0 1 161 55)" class="st1 st2">GT</text>
<circle class="st0" cx="373" cy="50" r="25"/>
<text transform="matrix(1 0 0 1 361 55)" class="st1 st2">CG</text>
<g>
	<g>
		<line class="st3" x1="98" y1="150" x2="137.4" y2="150"/>
		<g>
			<polygon points="148,150 133.1,156.1 136.6,150 133.1,143.9 			"/>
		</g>
	</g>
</g>
<text transform="matrix(1 0 0 1 103 130)" class="st1 st4">ATG</text>
<g>
	<g>
		<line class="st3" x1="188.1" y1="169.9" x2="246.8" y2="225.9"/>
		<g>
			<polygon points="254.5,233.2 239.5,227.3 246.3,225.3 247.9,218.5 			"/>
		</g>
	</g>
</g>
<text transform="matrix(1 0 0 1 161 220)" class="st1 st4">TGG</text>
<g>
	<g>
		<line class="st3" x1="291.5" y1="233.2" x2="350.2" y2="177.2"/>
		<g>
			<polygon points="357.9,169.9 351.3,184.6 349.6,177.8 342.9,175.8 			"/>
		</g>
	</g>
</g>
<g>
	<g>
		<line class="st3" x1="173" y1="75" x2="173" y2="114.4"/>
		<g>
			<polygon points="173,125 166.9,110.1 173,113.6 179.1,110.1 			"/>
		</g>
	</g>
</g>
<g>
	<g>
		<line class="st3" x1="348" y1="50" x2="208.6" y2="50"/>
		<g>
			<polygon points="198,50 212.9,43.9 209.4,50 212.9,56.1 			"/>
		</g>
	</g>
</g>
<g>
	<g>
		<line class="st3" x1="373" y1="125" x2="373" y2="85.6"/>
		<g>
			<polygon points="373,75 379.1,89.9 373,86.4 366.9,89.9 			"/>
		</g>
	</g>
</g>
<g>
	<g>
		<line class="st3" x1="198" y1="150" x2="337.4" y2="150"/>
		<g>
			<polygon points="348,150 333.1,156.1 336.6,150 333.1,143.9 			"/>
		</g>
	</g>
</g>
<g>
	<g>
		<line class="st3" x1="398" y1="150" x2="437.4" y2="150"/>
		<g>
			<polygon points="448,150 433.1,156.1 436.6,150 433.1,143.9 			"/>
		</g>
	</g>
</g>
<text transform="matrix(1 0 0 1 243 143.9)" class="st1 st4">TGC</text>
<text transform="matrix(1 0 0 1 391.0001 130)" class="st1 st4">GCA</text>
<text transform="matrix(1 0 0 1 340.8618 218.5)" class="st1 st4">GGC</text>
<text transform="matrix(1 0 0 1 243 43)" class="st1 st4">CGT</text>
<text transform="matrix(1 0 0 1 184 109.95)" class="st1 st4">GTG</text>
<text transform="matrix(1 0 0 1 312 109.9498)" class="st1 st4">GCG</text>
<rect x="39" y="109.9" class="st5" width="62" height="74.7"/>
<rect x="445" y="109.9" class="st5" width="62" height="74.7"/>
</svg>
