<?xml version="1.0" encoding="utf-8"?>
<!-- Generator: Adobe Illustrator 21.1.0, SVG Export Plug-In . SVG Version: 6.00 Build 0)  -->
<svg version="1.1" id="Layer_1" xmlns="http://www.w3.org/2000/svg" xmlns:xlink="http://www.w3.org/1999/xlink" x="0px" y="0px"
	 viewBox="0 0 550 350" style="enable-background:new 0 0 550 350;" xml:space="preserve">
<style type="text/css">
	.st0{fill:none;stroke:#000000;stroke-width:3;}
	.st1{font-family:'ArialMT';}
	.st2{font-size:18px;}
	.st3{fill:none;stroke:#000000;stroke-width:3;stroke-miterlimit:10;}
	.st4{font-size:24px;}
	.st5{opacity:0.5;}
	.st6{fill:none;stroke:#FF1904;stroke-width:4;stroke-miterlimit:10;}
	.st7{fill:none;stroke:#FF1904;stroke-width:4;stroke-miterlimit:10;stroke-dasharray:12.0659,12.0659;}
	.st8{fill:#FF1904;}
	.st9{fill:#FF1F12;}
	.st10{fill:none;stroke:#0530FF;stroke-width:4;stroke-miterlimit:10;}
	.st11{fill:#0530FF;}
</style>
<circle class="st0" cx="73" cy="150" r="25"/>
<text transform="matrix(1 0 0 1 61 155)" class="st1 st2">AT</text>
<circle class="st0" cx="173" cy="150" r="25"/>
<text transform="matrix(1 0 0 1 161 155)" class="st1 st2">TG</text>
<circle class="st0" cx="273" cy="250" r="25"/>
<text transform="matrix(1 0 0 1 261 255)" class="st1 st2">GG</text>
<circle class="st0" cx="373" cy="150" r="25"/>
<text transform="matrix(1 0 0 1 361 155)" class="st1 st2">GC</text>
<circle class="st0" cx="473" cy="150" r="25"/>
<text transform="matrix(1 0 0 1 461 155)" class="st1 st2">CA</text>
<circle class="st0" cx="173" cy="50" r="25"/>
<text transform="matrix(1 0 0 1 161 55)" class="st1 st2">GT</text>
<circle class="st0" cx="373" cy="50" r="25"/>
<text transform="matrix(1 0 0 1 361 55)" class="st1 st2">CG</text>
<g>
	<g>
		<line class="st3" x1="98" y1="150" x2="137.4" y2="150"/>
		<g>
			<polygon points="148,150 133.1,156.1 136.6,150 133.1,143.9 			"/>
		</g>
	</g>
</g>
<text transform="matrix(1 0 0 1 101 130)" class="st1 st4">ATG</text>
<g>
	<g>
		<line class="st3" x1="188.1" y1="169.9" x2="246.8" y2="225.9"/>
		<g>
			<polygon points="254.5,233.2 239.5,227.3 246.3,225.3 247.9,218.5 			"/>
		</g>
	</g>
</g>
<text transform="matrix(1 0 0 1 161 220)" class="st1 st4">TGG</text>
<g>
	<g>
		<line class="st3" x1="291.5" y1="233.2" x2="350.2" y2="177.2"/>
		<g>
			<polygon points="357.9,169.9 351.3,184.6 349.6,177.8 342.9,175.8 			"/>
		</g>
	</g>
</g>
<g>
	<g>
		<line class="st3" x1="173" y1="75" x2="173" y2="114.4"/>
		<g>
			<polygon points="173,125 166.9,110.1 173,113.6 179.1,110.1 			"/>
		</g>
	</g>
</g>
<g>
	<g>
		<line class="st3" x1="348" y1="50" x2="208.6" y2="50"/>
		<g>
			<polygon points="198,50 212.9,43.9 209.4,50 212.9,56.1 			"/>
		</g>
	</g>
</g>
<g>
	<g>
		<line class="st3" x1="373" y1="125" x2="373" y2="85.6"/>
		<g>
			<polygon points="373,75 379.1,89.9 373,86.4 366.9,89.9 			"/>
		</g>
	</g>
</g>
<g>
	<g>
		<line class="st3" x1="198" y1="150" x2="337.4" y2="150"/>
		<g>
			<polygon points="348,150 333.1,156.1 336.6,150 333.1,143.9 			"/>
		</g>
	</g>
</g>
<g>
	<g>
		<line class="st3" x1="398" y1="150" x2="437.4" y2="150"/>
		<g>
			<polygon points="448,150 433.1,156.1 436.6,150 433.1,143.9 			"/>
		</g>
	</g>
</g>
<text transform="matrix(1 0 0 1 243 143.9)" class="st1 st4">TGC</text>
<text transform="matrix(1 0 0 1 398.0001 130)" class="st1 st4">GCA</text>
<text transform="matrix(1 0 0 1 340.8618 218.5)" class="st1 st4">GGC</text>
<text transform="matrix(1 0 0 1 243 43)" class="st1 st4">CGT</text>
<text transform="matrix(1 0 0 1 184 109.95)" class="st1 st4">GTG</text>
<text transform="matrix(1 0 0 1 312 109.9498)" class="st1 st4">GCG</text>
<g class="st5">
	<g>
		<path class="st6" d="M57,196c1.8-0.6,3.7-1.1,5.7-1.7"/>
		<path class="st7" d="M74.5,191.5c19.5-3.9,45.9-5.2,71.5,6.5c26.1,12,59.6,41.4,71,78c2.6,8.4,5.1,20.6,16,31
			c13.8,13.2,31.8,14.6,37,15c23.6,1.9,49.4-8.7,62-28c4.1-6.2,2.5-6.9,9-22c6.5-15.2,13.6-27.6,25-45c28.6-43.8,32.7-40.4,43-60
			c3-5.7,25.1-49.5,13-100c-3.2-13.4-9.6-40.3-31-51c-10.8-5.4-19.9-3.9-37-3c-26,1.3-52-2.4-78-3c-80.7-1.9-89.9-1.6-105,3
			c-32.4,9.9-41.4,16.9-45,22c-14.3,20.4-5.4,48.3-2,59c13.8,43.3,38.6,73.9,81.4,83.2c12.6,2.8,26.7,2.9,83.6,3.8
			c36.9,0.6,54.2,2.7,81,3c40.6,0.4,82-2.2,106.3,5"/>
		<path class="st6" d="M482,191c1.9,0.8,3.7,1.7,5.4,2.7"/>
		<g>
			<polygon class="st8" points="498,212 471.3,194 485.3,193.1 491.5,180.4 			"/>
		</g>
	</g>
</g>
<text transform="matrix(1 0 0 1 372.9996 250)" class="st9 st1 st4">ATG</text>
<text transform="matrix(1 0 0 1 422.2996 250)" class="st9 st1 st4" style="text-decoration: underline;">GCGT</text>
<text transform="matrix(1 0 0 1 491.6996 250)" class="st9 st1 st4">GCA</text>
<g>
	<g>
		<path class="st10" d="M48,105c57.7,4.4,116.8,9.6,177,16c29,3.1,66.2,23.4,113,13c43-9.5,54.4-17.9,58-26c4.9-10.9,1.5-22.2,0-27
			c-9.6-30.9-45.5-44.6-65-52c-18.2-6.9-70.3-23.6-128-3c-16.6,5.9-52.4,18.7-60,47c-2.5,9.4-1.1,17.4,0,23
			c17.4,86.1,94.4,169.7,103,190c0.6,1.4,2.7,6.8,8,11c4.3,3.4,8.7,4.5,11,5c1.3,0.3,7.3,1.7,15,0c2.5-0.5,9.7-2.2,16-8
			c5.2-4.8,7.3-10.3,8-12c0,0,4.6-11.4,28-49c17.3-27.7,68.9-45.7,105-29c30.1,13.9,43.7,49.4,49,63c0.1,0.3,0.3,0.7,0.4,1"/>
		<g>
			<polygon class="st11" points="492,287 473,263.7 485.8,266.7 494.8,257 			"/>
		</g>
	</g>
</g>
<text transform="matrix(1 0 0 1 373.7501 308)" class="st11 st1 st4">ATG</text>
<text transform="matrix(1 0 0 1 423.05 308)" class="st11 st1 st4" style="text-decoration: underline;">CGTG</text>
<text transform="matrix(1 0 0 1 492.4501 308)" class="st11 st1 st4">GCA</text>
</svg>
