<?xml version="1.0" encoding="utf-8"?>
<!-- Generator: Adobe Illustrator 21.1.0, SVG Export Plug-In . SVG Version: 6.00 Build 0)  -->
<svg version="1.1" id="Layer_1" xmlns="http://www.w3.org/2000/svg" xmlns:xlink="http://www.w3.org/1999/xlink" x="0px" y="0px"
	 viewBox="0 0 862 185.9" style="enable-background:new 0 0 862 185.9;" xml:space="preserve">
<style type="text/css">
	.st0{fill:#D42300;}
	.st1{font-family:'ArialMT';}
	.st2{font-size:30px;}
	.st3{fill:#DD7A44;}
	.st4{fill:#0E1087;}
	.st5{fill:#33D400;}
	.st6{font-size:21px;}
	.st7{fill:none;stroke:#5F5F5F;stroke-miterlimit:8;}
</style>
<text transform="matrix(1 0 0 1 22 43.94)" class="st0 st1 st2">ATGCG</text>
<text transform="matrix(1 0 0 1 266.5 92.6002)" class="st3 st1 st2">TGGCA</text>
<text transform="matrix(1 0 0 1 208 51.94)" class="st4 st1 st2">GTGGC</text>
<text transform="matrix(1 0 0 1 87 84.94)" class="st5 st1 st2">GCGTG</text>
<text transform="matrix(1 0 0 1 423.5 70.8079)" class="st1 st6">3-mers</text>
<g>
	<polygon class="st7" points="413,79 504.2,79 504.2,70.8 531,87.2 504.2,103.6 504.2,95.4 413,95.4 	"/>
</g>
<text transform="matrix(1 0 0 1 554.9541 153.8001)" class="st3 st1 st2">TGG, GGC, GCA</text>
<text transform="matrix(1 0 0 1 554.9541 117.1802)" class="st4 st1 st2">GTG, TGG, GGC</text>
<text transform="matrix(1 0 0 1 552.9541 80.5604)" class="st5 st1 st2">GCG, CGT, GTG</text>
<text transform="matrix(1 0 0 1 555 43.94)" class="st0 st1 st2">ATG, TGC, GCG</text>
</svg>
