<?xml version="1.0" encoding="utf-8"?>
<!-- Generator: Adobe Illustrator 21.1.0, SVG Export Plug-In . SVG Version: 6.00 Build 0)  -->
<svg version="1.1" id="Layer_1" xmlns="http://www.w3.org/2000/svg" xmlns:xlink="http://www.w3.org/1999/xlink" x="0px" y="0px"
	 viewBox="0 0 720 296" style="enable-background:new 0 0 720 296;" xml:space="preserve">
<style type="text/css">
	.st0{clip-path:url(#SVGID_2_);fill:#FFFFFF;fill-opacity:0;}
	.st1{clip-path:url(#SVGID_4_);}
	.st2{fill:#FFFFFF;}
	.st3{font-family:'ArialMT';}
	.st4{font-size:18px;}
	.st5{fill:#D42300;}
	.st6{font-size:30px;}
	.st7{fill:#DD7A44;}
	.st8{fill:#0E1087;}
	.st9{fill:#33D400;}
	.st10{font-size:21px;}
	.st11{fill:none;stroke:#5F5F5F;stroke-width:2;stroke-linejoin:round;stroke-miterlimit:10;}
</style>
<g>
	<g>
		<g>
			<g>
				<g>
					<defs>
						<rect id="SVGID_1_" x="21" y="16.9" width="331" height="260"/>
					</defs>
					<clipPath id="SVGID_2_">
						<use xlink:href="#SVGID_1_"  style="overflow:visible;"/>
					</clipPath>
					<rect x="21" y="16.9" class="st0" width="331" height="260"/>
				</g>
			</g>
		</g>
	</g>
	<g>
		<g>
			<g>
				<g>
					<defs>
						<rect id="SVGID_3_" x="21" y="16.9" width="331" height="260"/>
					</defs>
					<clipPath id="SVGID_4_">
						<use xlink:href="#SVGID_3_"  style="overflow:visible;"/>
					</clipPath>
					<g class="st1">
						<text transform="matrix(1 0 0 1 155.9502 40.6443)" class="st2 st3 st4">Vertex</text>
					</g>
				</g>
			</g>
		</g>
	</g>
</g>
<text transform="matrix(1 0 0 1 56 58.94)" class="st5 st3 st6">ATGCG</text>
<text transform="matrix(1 0 0 1 196.5 259.94)" class="st7 st3 st6">TGGCA</text>
<text transform="matrix(1 0 0 1 249 127.94)" class="st8 st3 st6">GTGGC</text>
<text transform="matrix(1 0 0 1 22 192.94)" class="st9 st3 st6">GCGTG</text>
<text transform="matrix(1 0 0 1 165 35.94)" class="st3 st10">Vertex</text>
<g>
	<ellipse class="st11" cx="105" cy="48" rx="60" ry="27"/>
	<ellipse class="st11" cx="79" cy="183" rx="60" ry="27"/>
	<ellipse class="st11" cx="304" cy="116" rx="60" ry="27"/>
	<ellipse class="st11" cx="250" cy="249" rx="60" ry="27"/>
</g>
</svg>
