<?xml version="1.0" encoding="utf-8"?>
<!-- Generator: Adobe Illustrator 21.1.0, SVG Export Plug-In . SVG Version: 6.00 Build 0)  -->
<svg version="1.1" id="Layer_1" xmlns="http://www.w3.org/2000/svg" xmlns:xlink="http://www.w3.org/1999/xlink" x="0px" y="0px"
	 viewBox="0 0 815 445" style="enable-background:new 0 0 815 445;" xml:space="preserve">
<style type="text/css">
	.st0{fill:#D42300;}
	.st1{font-family:'ArialMT';}
	.st2{font-size:30px;}
	.st3{fill:#DD7A44;}
	.st4{fill:#0E1087;}
	.st5{fill:#33D400;}
	.st6{font-size:21px;}
	.st7{fill:none;stroke:#5F5F5F;stroke-miterlimit:8;}
	.st8{opacity:0.5;fill:none;stroke:#000000;stroke-width:3;stroke-miterlimit:10;enable-background:new    ;}
	.st9{enable-background:new    ;}
	.st10{fill:none;stroke:#5F5F5F;stroke-width:2;stroke-linejoin:round;stroke-miterlimit:10;}
	.st11{fill:none;stroke:#000000;stroke-miterlimit:10;}
	.st12{fill:none;stroke:#000000;stroke-width:3;stroke-miterlimit:10;}
</style>
<text transform="matrix(1 0 0 1 22 43.94)" class="st0 st1 st2">ATGCG</text>
<text transform="matrix(1 0 0 1 266.5 92.6002)" class="st3 st1 st2">TGGCA</text>
<text transform="matrix(1 0 0 1 208 51.94)" class="st4 st1 st2">GTGGC</text>
<text transform="matrix(1 0 0 1 87 84.94)" class="st5 st1 st2">GCGTG</text>
<text transform="matrix(1 0 0 1 423.5 70.8079)" class="st1 st6">3-mers</text>
<g>
	<polygon class="st7" points="413,79 504.2,79 504.2,70.8 531,87.2 504.2,103.6 504.2,95.4 413,95.4 	"/>
</g>
<text transform="matrix(1 0 0 1 554.9541 153.8001)" class="st3 st1 st2">TGG, GGC, GCA</text>
<text transform="matrix(1 0 0 1 554.9541 117.1802)" class="st4 st1 st2">GTG, TGG, GGC</text>
<text transform="matrix(1 0 0 1 552.9541 80.5604)" class="st5 st1 st2">GCG, CGT, GTG</text>
<text transform="matrix(1 0 0 1 555 43.94)" class="st0 st1 st2">ATG, TGC, GCG</text>
<line class="st8" x1="552.6" y1="70.8" x2="623.4" y2="70.8"/>
<line class="st8" x1="636.6" y1="141.9" x2="707.4" y2="141.9"/>
<line class="st8" x1="554.6" y1="141.9" x2="625.4" y2="141.9"/>
<line class="st8" x1="552.6" y1="105.6" x2="623.4" y2="105.6"/>
<g>
	<text transform="matrix(1 0 0 1 167.5 165.7401)" class="st9"><tspan x="0" y="0" class="st1 st2" style="text-decoration: underline;">GC</tspan><tspan x="45" y="0" class="st1 st2">G</tspan></text>
	<ellipse class="st10" cx="202.2" cy="153.8" rx="39.8" ry="27"/>
</g>
<g>
	<path class="st10" d="M299.8,147.6"/>
</g>
<g>
	<path class="st10" d="M299.8,147.6"/>
</g>
<g>
	<path class="st10" d="M299.8,147.6"/>
</g>
<g>
	<path class="st10" d="M299.8,147.6"/>
</g>
<g>
	<path class="st10" d="M299.8,147.6"/>
</g>
<g>
	<path class="st10" d="M299.8,147.6"/>
</g>
<g>
	<text transform="matrix(1 0 0 1 306.25 174.5601)" class="st1 st2">CGT</text>
	<ellipse class="st10" cx="341" cy="162.6" rx="39.8" ry="27"/>
</g>
<g>
	<path class="st10" d="M399,210.4"/>
</g>
<g>
	<path class="st10" d="M399,210.4"/>
</g>
<g>
	<path class="st10" d="M399,210.4"/>
</g>
<g>
	<path class="st10" d="M399,210.4"/>
</g>
<g>
	<path class="st10" d="M399,210.4"/>
</g>
<g>
	<path class="st10" d="M399,210.4"/>
</g>
<g>
	<text transform="matrix(1 0 0 1 405.5 237.41)" class="st1 st2">GTG</text>
	<ellipse class="st10" cx="440.2" cy="225.5" rx="39.8" ry="27"/>
</g>
<g>
	<polygon class="st11" points="642,186.8 561.5,229.8 565.4,237 534,235.2 549.9,208.1 553.8,215.3 634.2,172.3 	"/>
</g>
<g>
	<path class="st10" d="M388,312.4"/>
</g>
<g>
	<path class="st10" d="M388,312.4"/>
</g>
<g>
	<path class="st10" d="M388,312.4"/>
</g>
<g>
	<path class="st10" d="M388,312.4"/>
</g>
<g>
	<path class="st10" d="M388,312.4"/>
</g>
<g>
	<path class="st10" d="M388,312.4"/>
</g>
<g>
	<text transform="matrix(1 0 0 1 394.5 339.41)" class="st9"><tspan x="0" y="0" class="st1 st2" style="text-decoration: underline;">GC</tspan><tspan x="45" y="0" class="st1 st2">A</tspan></text>
	<ellipse class="st10" cx="429.2" cy="327.5" rx="39.8" ry="27"/>
</g>
<g>
	<path class="st10" d="M113,357.3"/>
</g>
<g>
	<path class="st10" d="M113,357.3"/>
</g>
<g>
	<path class="st10" d="M113,357.3"/>
</g>
<g>
	<path class="st10" d="M113,357.3"/>
</g>
<g>
	<path class="st10" d="M113,357.3"/>
</g>
<g>
	<path class="st10" d="M113,357.3"/>
</g>
<g>
	<text transform="matrix(1 0 0 1 123.5 384.29)" class="st1 st2">TGG</text>
	<ellipse class="st10" cx="155.2" cy="372.4" rx="39.8" ry="27"/>
</g>
<g>
	<path class="st10" d="M258.5,366.4"/>
</g>
<g>
	<path class="st10" d="M258.5,366.4"/>
</g>
<g>
	<path class="st10" d="M258.5,366.4"/>
</g>
<g>
	<path class="st10" d="M258.5,366.4"/>
</g>
<g>
	<path class="st10" d="M258.5,366.4"/>
</g>
<g>
	<path class="st10" d="M258.5,366.4"/>
</g>
<g>
	<text transform="matrix(1 0 0 1 265 393.41)" class="st1 st2">GGC</text>
	<ellipse class="st10" cx="299.8" cy="381.5" rx="39.8" ry="27"/>
</g>
<g>
	<path class="st10" d="M22,282.3"/>
</g>
<g>
	<path class="st10" d="M22,282.3"/>
</g>
<g>
	<path class="st10" d="M22,282.3"/>
</g>
<g>
	<path class="st10" d="M22,282.3"/>
</g>
<g>
	<path class="st10" d="M22,282.3"/>
</g>
<g>
	<path class="st10" d="M22,282.3"/>
</g>
<g>
	<text transform="matrix(1 0 0 1 33.5 309.29)" class="st1 st2">ATG</text>
	<ellipse class="st10" cx="65.2" cy="297.4" rx="39.8" ry="27"/>
</g>
<g>
	<path class="st10" d="M31,183.4"/>
</g>
<g>
	<path class="st10" d="M31,183.4"/>
</g>
<g>
	<path class="st10" d="M31,183.4"/>
</g>
<g>
	<path class="st10" d="M31,183.4"/>
</g>
<g>
	<path class="st10" d="M31,183.4"/>
</g>
<g>
	<path class="st10" d="M31,183.4"/>
</g>
<g>
	<text transform="matrix(1 0 0 1 40.5 210.41)" class="st9"><tspan x="0" y="0" class="st1 st2">T</tspan><tspan x="18.3" y="0" class="st1 st2" style="text-decoration: underline;">GC</tspan></text>
	<ellipse class="st10" cx="72.2" cy="198.5" rx="39.8" ry="27"/>
</g>
<g>
	<g>
		<line class="st12" x1="63.2" y1="268" x2="69.9" y2="238.3"/>
		<g>
			<polygon points="72.2,227.9 74.9,243.8 69.7,239.1 63,241.2 			"/>
		</g>
	</g>
</g>
<g>
	<g>
		<line class="st12" x1="78.1" y1="327.5" x2="109.8" y2="350.1"/>
		<g>
			<polygon points="118.5,356.3 102.8,352.6 109.2,349.7 109.9,342.7 			"/>
		</g>
	</g>
</g>
<g>
	<g>
		<line class="st12" x1="113" y1="210.4" x2="378.1" y2="308.7"/>
		<g>
			<polygon points="388,312.4 371.9,312.9 377.3,308.4 376.1,301.5 			"/>
		</g>
	</g>
</g>
<g>
	<g>
		<line class="st12" x1="109.8" y1="180.8" x2="145.1" y2="169.1"/>
		<g>
			<polygon points="155.2,165.7 143,176.2 144.4,169.3 139.1,164.7 			"/>
		</g>
	</g>
</g>
</svg>
