<?xml version="1.0" encoding="utf-8"?>
<!-- Generator: Adobe Illustrator 21.1.0, SVG Export Plug-In . SVG Version: 6.00 Build 0)  -->
<svg version="1.1" id="Layer_1" xmlns="http://www.w3.org/2000/svg" xmlns:xlink="http://www.w3.org/1999/xlink" x="0px" y="0px"
	 viewBox="0 0 815 445" style="enable-background:new 0 0 815 445;" xml:space="preserve">
<style type="text/css">
	.st0{fill:#D42300;}
	.st1{font-family:'ArialMT';}
	.st2{font-size:30px;}
	.st3{fill:#DD7A44;}
	.st4{fill:#0E1087;}
	.st5{fill:#33D400;}
	.st6{font-size:21px;}
	.st7{fill:none;stroke:#5F5F5F;stroke-miterlimit:8;}
	.st8{opacity:0.5;fill:none;stroke:#000000;stroke-width:3;stroke-miterlimit:10;enable-background:new    ;}
	.st9{fill:none;stroke:#5F5F5F;stroke-width:2;stroke-linejoin:round;stroke-miterlimit:10;}
	.st10{fill:none;stroke:#000000;stroke-miterlimit:10;}
</style>
<text transform="matrix(1 0 0 1 22 43.94)" class="st0 st1 st2">ATGCG</text>
<text transform="matrix(1 0 0 1 266.5 92.6002)" class="st3 st1 st2">TGGCA</text>
<text transform="matrix(1 0 0 1 208 51.94)" class="st4 st1 st2">GTGGC</text>
<text transform="matrix(1 0 0 1 87 84.94)" class="st5 st1 st2">GCGTG</text>
<text transform="matrix(1 0 0 1 423.5 70.8079)" class="st1 st6">3-mers</text>
<g>
	<polygon class="st7" points="413,79 504.2,79 504.2,70.8 531,87.2 504.2,103.6 504.2,95.4 413,95.4 	"/>
</g>
<text transform="matrix(1 0 0 1 554.9541 153.8001)" class="st3 st1 st2">TGG, GGC, GCA</text>
<text transform="matrix(1 0 0 1 554.9541 117.1802)" class="st4 st1 st2">GTG, TGG, GGC</text>
<text transform="matrix(1 0 0 1 552.9541 80.5604)" class="st5 st1 st2">GCG, CGT, GTG</text>
<text transform="matrix(1 0 0 1 555 43.94)" class="st0 st1 st2">ATG, TGC, GCG</text>
<line class="st8" x1="552.6" y1="70.8" x2="623.4" y2="70.8"/>
<line class="st8" x1="636.6" y1="141.9" x2="707.4" y2="141.9"/>
<line class="st8" x1="554.6" y1="141.9" x2="625.4" y2="141.9"/>
<line class="st8" x1="552.6" y1="105.6" x2="623.4" y2="105.6"/>
<g>
	<text transform="matrix(1 0 0 1 167.5 165.7401)" class="st1 st2">GCG</text>
	<ellipse class="st9" cx="202.2" cy="153.8" rx="39.8" ry="27"/>
</g>
<g>
	<path class="st9" d="M299.8,147.6"/>
</g>
<g>
	<path class="st9" d="M299.8,147.6"/>
</g>
<g>
	<path class="st9" d="M299.8,147.6"/>
</g>
<g>
	<path class="st9" d="M299.8,147.6"/>
</g>
<g>
	<path class="st9" d="M299.8,147.6"/>
</g>
<g>
	<path class="st9" d="M299.8,147.6"/>
</g>
<g>
	<text transform="matrix(1 0 0 1 306.25 174.5601)" class="st1 st2">CGT</text>
	<ellipse class="st9" cx="341" cy="162.6" rx="39.8" ry="27"/>
</g>
<g>
	<path class="st9" d="M399,210.4"/>
</g>
<g>
	<path class="st9" d="M399,210.4"/>
</g>
<g>
	<path class="st9" d="M399,210.4"/>
</g>
<g>
	<path class="st9" d="M399,210.4"/>
</g>
<g>
	<path class="st9" d="M399,210.4"/>
</g>
<g>
	<path class="st9" d="M399,210.4"/>
</g>
<g>
	<text transform="matrix(1 0 0 1 405.5 237.41)" class="st1 st2">GTG</text>
	<ellipse class="st9" cx="440.2" cy="225.5" rx="39.8" ry="27"/>
</g>
<g>
	<polygon class="st10" points="642,186.8 561.5,229.8 565.4,237 534,235.2 549.9,208.1 553.8,215.3 634.2,172.3 	"/>
</g>
<g>
	<path class="st9" d="M388,312.4"/>
</g>
<g>
	<path class="st9" d="M388,312.4"/>
</g>
<g>
	<path class="st9" d="M388,312.4"/>
</g>
<g>
	<path class="st9" d="M388,312.4"/>
</g>
<g>
	<path class="st9" d="M388,312.4"/>
</g>
<g>
	<path class="st9" d="M388,312.4"/>
</g>
<g>
	<text transform="matrix(1 0 0 1 394.5 339.41)" class="st1 st2">GCA</text>
	<ellipse class="st9" cx="429.2" cy="327.5" rx="39.8" ry="27"/>
</g>
<g>
	<path class="st9" d="M113,357.3"/>
</g>
<g>
	<path class="st9" d="M113,357.3"/>
</g>
<g>
	<path class="st9" d="M113,357.3"/>
</g>
<g>
	<path class="st9" d="M113,357.3"/>
</g>
<g>
	<path class="st9" d="M113,357.3"/>
</g>
<g>
	<path class="st9" d="M113,357.3"/>
</g>
<g>
	<text transform="matrix(1 0 0 1 123.5 384.29)" class="st1 st2">TG</text>
	<text transform="matrix(1 0 0 1 165.2 384.29)" class="st1 st2">G</text>
	<ellipse class="st9" cx="155.2" cy="372.4" rx="39.8" ry="27"/>
</g>
<g>
	<path class="st9" d="M258.5,366.4"/>
</g>
<g>
	<path class="st9" d="M258.5,366.4"/>
</g>
<g>
	<path class="st9" d="M258.5,366.4"/>
</g>
<g>
	<path class="st9" d="M258.5,366.4"/>
</g>
<g>
	<path class="st9" d="M258.5,366.4"/>
</g>
<g>
	<path class="st9" d="M258.5,366.4"/>
</g>
<g>
	<text transform="matrix(1 0 0 1 265 393.41)" class="st1 st2">GGC</text>
	<ellipse class="st9" cx="299.8" cy="381.5" rx="39.8" ry="27"/>
</g>
<g>
	<path class="st9" d="M22,282.3"/>
</g>
<g>
	<path class="st9" d="M22,282.3"/>
</g>
<g>
	<path class="st9" d="M22,282.3"/>
</g>
<g>
	<path class="st9" d="M22,282.3"/>
</g>
<g>
	<path class="st9" d="M22,282.3"/>
</g>
<g>
	<path class="st9" d="M22,282.3"/>
</g>
<g>
	<text transform="matrix(1 0 0 1 33.5 309.29)" class="st1 st2">A</text>
	<text transform="matrix(1 0 0 1 53.5 309.29)" class="st1 st2">TG</text>
	<ellipse class="st9" cx="65.2" cy="297.4" rx="39.8" ry="27"/>
</g>
<g>
	<path class="st9" d="M31,183.4"/>
</g>
<g>
	<path class="st9" d="M31,183.4"/>
</g>
<g>
	<path class="st9" d="M31,183.4"/>
</g>
<g>
	<path class="st9" d="M31,183.4"/>
</g>
<g>
	<path class="st9" d="M31,183.4"/>
</g>
<g>
	<path class="st9" d="M31,183.4"/>
</g>
<g>
	<text transform="matrix(1 0 0 1 40.5 210.41)" class="st1 st2">TG</text>
	<text transform="matrix(1 0 0 1 82.2 210.41)" class="st1 st2">C</text>
	<ellipse class="st9" cx="72.2" cy="198.5" rx="39.8" ry="27"/>
</g>
</svg>
