<?xml version="1.0" encoding="utf-8"?>
<!-- Generator: Adobe Illustrator 21.1.0, SVG Export Plug-In . SVG Version: 6.00 Build 0)  -->
<svg version="1.1" id="Layer_1" xmlns="http://www.w3.org/2000/svg" xmlns:xlink="http://www.w3.org/1999/xlink" x="0px" y="0px"
	 viewBox="0 0 720 296" style="enable-background:new 0 0 720 296;" xml:space="preserve">
<style type="text/css">
	.st0{clip-path:url(#SVGID_2_);fill:#FFFFFF;fill-opacity:0;}
	.st1{clip-path:url(#SVGID_4_);}
	.st2{fill:#FFFFFF;}
	.st3{font-family:'ArialMT';}
	.st4{font-size:18px;}
	.st5{fill:#D42300;}
	.st6{font-size:30px;}
	.st7{fill:#DD7A44;}
	.st8{fill:#0E1087;}
	.st9{fill:#33D400;}
	.st10{font-size:21px;}
	.st11{fill:#5F5F5F;}
	.st12{fill:none;stroke:#5F5F5F;stroke-width:2;stroke-linejoin:round;stroke-miterlimit:10;}
	.st13{fill:none;stroke:#5F5F5F;stroke-miterlimit:8;}
	.st14{fill:#808080;}
</style>
<g>
	<g>
		<g>
			<defs>
				<rect id="SVGID_1_" x="21" y="16.9" width="331" height="260"/>
			</defs>
			<clipPath id="SVGID_2_">
				<use xlink:href="#SVGID_1_"  style="overflow:visible;"/>
			</clipPath>
			<rect x="21" y="16.9" class="st0" width="331" height="260"/>
		</g>
	</g>
	<g>
		<g>
			<defs>
				<rect id="SVGID_3_" x="21" y="16.9" width="331" height="260"/>
			</defs>
			<clipPath id="SVGID_4_">
				<use xlink:href="#SVGID_3_"  style="overflow:visible;"/>
			</clipPath>
			<g class="st1">
				<text transform="matrix(1 0 0 1 155.9502 40.6443)" class="st2 st3 st4">Vertex</text>
			</g>
		</g>
	</g>
</g>
<text transform="matrix(1 0 0 1 56 58.94)" class="st5 st3 st6">ATGCG</text>
<text transform="matrix(1 0 0 1 196.5 259.94)" class="st7 st3 st6">TGGCA</text>
<text transform="matrix(1 0 0 1 249 127.94)" class="st8 st3 st6">GTGGC</text>
<text transform="matrix(1 0 0 1 22 192.94)" class="st9 st3 st6">GCGTG</text>
<text transform="matrix(1 0 0 1 165 35.94)" class="st3 st10">Vertex</text>
<g>
	<path class="st11" d="M99.8,78.8l-14.6,71.5l-1-3.1c-0.2-0.5-0.7-0.8-1.3-0.6c-0.5,0.2-0.8,0.7-0.6,1.3l2.8,8.2l5.8-6.5
		c0.4-0.4,0.3-1-0.1-1.4s-1-0.3-1.4,0.1l-2.2,2.4l14.6-71.5L99.8,78.8z"/>
	<path class="st11" d="M135.3,172l122.3-32.6l-2.1,2c-0.4,0.4-0.4,0.9,0,1.2c0.4,0.4,0.9,0.4,1.3,0l5.5-5.5l-7.6-2
		c-0.5-0.1-1,0.2-1.1,0.6s0.2,1,0.6,1.1l2.8,0.7l-122.3,32.6L135.3,172z"/>
	<path class="st11" d="M284.5,142.6l-27.4,71.8l-0.5-3.2c-0.1-0.5-0.6-0.9-1.1-0.8c-0.5,0.1-0.9,0.6-0.8,1.1l1.4,8.5l6.7-5.4
		c0.4-0.3,0.5-1,0.2-1.4s-1-0.5-1.4-0.2l-2.5,2l27.4-71.8L284.5,142.6z"/>
	<ellipse class="st12" cx="105" cy="48" rx="60" ry="27"/>
	<ellipse class="st12" cx="79" cy="183" rx="60" ry="27"/>
	<ellipse class="st12" cx="304" cy="116" rx="60" ry="27"/>
	<ellipse class="st12" cx="250" cy="249" rx="60" ry="27"/>
</g>
<g>
	<polygon class="st13" points="392.5,120.8 443.5,120.8 443.5,112.6 458.5,129 443.5,145.4 443.5,137.2 392.5,137.2 	"/>
	<line class="st12" x1="499" y1="77.6" x2="499" y2="191"/>
	<line class="st12" x1="691" y1="158.8" x2="691" y2="192.8"/>
</g>
<text transform="matrix(1 0 0 1 490 218.0001)" class="st14 st3 st6">ATGCGTGGCA    </text>
<text transform="matrix(1 0 0 1 595 153.5435)" class="st7 st3 st6">TGGCA</text>
<text transform="matrix(1 0 0 1 572 125.6758)" class="st8 st3 st6">GTGGC</text>
<text transform="matrix(1 0 0 1 527 97.8079)" class="st9 st3 st6">GCGTG</text>
<text transform="matrix(1 0 0 1 490 69.94)" class="st5 st3 st6">ATGCG</text>
</svg>
