<?xml version="1.0" encoding="utf-8"?>
<!-- Generator: Adobe Illustrator 21.1.0, SVG Export Plug-In . SVG Version: 6.00 Build 0)  -->
<svg version="1.1" id="Layer_1" xmlns="http://www.w3.org/2000/svg" xmlns:xlink="http://www.w3.org/1999/xlink" x="0px" y="0px"
	 viewBox="0 0 506 221" style="enable-background:new 0 0 506 221;" xml:space="preserve">
<style type="text/css">
	.st0{fill:#D42300;}
	.st1{font-family:'ArialMT';}
	.st2{font-size:30px;}
	.st3{fill:#DD7A44;}
	.st4{fill:#0E1087;}
	.st5{fill:#33D400;}
	.st6{fill:none;stroke:#5F5F5F;stroke-miterlimit:8;}
	.st7{opacity:0.75;fill:none;stroke:#666666;stroke-width:5;stroke-miterlimit:10;enable-background:new    ;}
</style>
<text transform="matrix(1 0 0 1 27 57.6001)" class="st0 st1 st2">ATGCG</text>
<text transform="matrix(1 0 0 1 26.9541 129.1602)" class="st3 st1 st2">TGGCA</text>
<text transform="matrix(1 0 0 1 26.9541 164.94)" class="st4 st1 st2">GTGGC</text>
<text transform="matrix(1 0 0 1 26.9541 93.3801)" class="st5 st1 st2">GCGTG</text>
<g>
	<polygon class="st6" points="171.5,93.8 222.5,93.8 222.5,85.6 237.5,102 222.5,118.4 222.5,110.2 171.5,110.2 	"/>
</g>
<text transform="matrix(1 0 0 1 348 98.6758)" class="st4 st1 st2">GTGGC</text>
<text transform="matrix(1 0 0 1 306 70.8079)" class="st5 st1 st2">GCGTG</text>
<text transform="matrix(1 0 0 1 269 42.94)" class="st0 st1 st2">ATGCG</text>
<line class="st7" x1="22" y1="47.6" x2="138" y2="47.6"/>
<line class="st7" x1="22" y1="82" x2="138" y2="82"/>
<line class="st7" x1="22" y1="153" x2="138" y2="153"/>
</svg>
