<?xml version="1.0" encoding="utf-8"?>
<!-- Generator: Adobe Illustrator 21.1.0, SVG Export Plug-In . SVG Version: 6.00 Build 0)  -->
<svg version="1.1" id="Layer_1" xmlns="http://www.w3.org/2000/svg" xmlns:xlink="http://www.w3.org/1999/xlink" x="0px" y="0px"
	 viewBox="0 0 602.3 104" style="enable-background:new 0 0 602.3 104;" xml:space="preserve">
<style type="text/css">
	.st0{font-family:'ArialMT';}
	.st1{font-size:18px;}
	.st2{fill:#FF2C12;}
	.st3{font-size:14px;}
	.st4{enable-background:new    ;}
	.st5{font-size:12px;}
	.st6{fill:none;stroke:#000000;stroke-width:2;stroke-miterlimit:10;}
</style>
<text transform="matrix(1 0 0 1 10 60)" class="st0 st1">ATGGC</text>
<text transform="matrix(1 0 0 1 74 60)" class="st2 st0 st1">G</text>
<text transform="matrix(1 0 0 1 88 60)" class="st0 st1">TGCA</text>
<text transform="matrix(1 0 0 1 144 35)" class="st0 st3">k=3</text>
<text transform="matrix(1 0 0 1 205 35)" class="st4"><tspan x="0" y="0" class="st0 st1">ATG  TGG  GGC  GC</tspan>
                                                    <tspan x="174" y="0" class="st2 st0 st1">G</tspan></text>
<text transform="matrix(1 0 0 1 393 35)" class="st0 st1">  C</text>
<text transform="matrix(1 0 0 1 416 35)" class="st2 st0 st1">G</text>
<text transform="matrix(1 0 0 1 430 35)" class="st0 st1">T  </text>
<text transform="matrix(1 0 0 1 451 35)" class="st2 st0 st1">G</text>
<text transform="matrix(1 0 0 1 465 35)" class="st0 st1">TG  TGC  GCA</text>
<text transform="matrix(1 0 0 1 438 55)" class="st0 st5">Mostly unaffected k-mers</text>
<text transform="matrix(1 0 0 1 144 78)" class="st0 st3">k=10</text>
<text transform="matrix(1 0 0 1 278 91)" class="st0 st5">100% affected k-mers</text>
<text transform="matrix(1 0 0 1 205 72)" class="st0 st1">ATGGC</text>
<text transform="matrix(1 0 0 1 269 72)" class="st2 st0 st1">G</text>
<text transform="matrix(1 0 0 1 283 72)" class="st0 st1">TGCA</text>
<g>
	<g>
		<line class="st6" x1="139.7" y1="52" x2="191.7" y2="33.1"/>
		<g>
			<polygon points="198.3,30.7 190.4,37.9 191.2,33.3 187.6,30.2 			"/>
		</g>
	</g>
</g>
<g>
	<g>
		<line class="st6" x1="141.1" y1="56.8" x2="195.9" y2="64.3"/>
		<g>
			<polygon points="202.9,65.2 192.5,67.9 195.4,64.2 193.6,59.9 			"/>
		</g>
	</g>
</g>
</svg>
